<svg width="69" height="84" viewBox="0 0 69 84" fill="none" xmlns="http://www.w3.org/2000/svg">
<path d="M34.2216 14.4273C34.0563 14.4268 33.8949 14.3776 33.7576 14.2856C33.6203 14.1937 33.5132 14.0633 33.4498 13.9107C33.3864 13.7581 33.3695 13.5902 33.4013 13.428C33.4331 13.2658 33.512 13.1167 33.6283 12.9993L40.1095 6.51814C40.4389 6.19996 40.7017 5.81936 40.8824 5.39853C41.0632 4.97771 41.1584 4.5251 41.1623 4.06711C41.1663 3.60912 41.0791 3.15493 40.9056 2.73103C40.7322 2.30713 40.4761 1.92201 40.1522 1.59815C39.8284 1.27429 39.4432 1.01818 39.0193 0.844744C38.5954 0.671313 38.1412 0.584041 37.6833 0.588021C37.2253 0.592001 36.7727 0.687152 36.3518 0.867924C35.931 1.0487 35.5504 1.31147 35.2322 1.64091L21.4352 15.4379C21.114 15.7583 20.8592 16.1389 20.6853 16.558C20.5114 16.977 20.4219 17.4263 20.4219 17.88C20.4219 18.3337 20.5114 18.7829 20.6853 19.202C20.8592 19.621 21.114 20.0016 21.4352 20.322L35.2322 34.119C35.5504 34.4485 35.931 34.7113 36.3518 34.892C36.7727 35.0728 37.2253 35.1679 37.6833 35.1719C38.1412 35.1759 38.5954 35.0886 39.0193 34.9152C39.4432 34.7418 39.8284 34.4856 40.1522 34.1618C40.4761 33.8379 40.7322 33.4528 40.9056 33.0289C41.0791 32.605 41.1663 32.1508 41.1623 31.6928C41.1584 31.2348 41.0632 30.7822 40.8824 30.3614C40.7017 29.9406 40.4389 29.56 40.1095 29.2418L33.6283 22.7538C33.512 22.6364 33.4331 22.4872 33.4013 22.325C33.3695 22.1629 33.3864 21.995 33.4498 21.8424C33.5132 21.6898 33.6203 21.5593 33.7576 21.4674C33.8949 21.3755 34.0563 21.3262 34.2216 21.3258C41.54 21.3258 48.5586 24.233 53.7335 29.4079C58.9084 34.5827 61.8156 41.6014 61.8156 48.9198C61.8156 56.2382 58.9084 63.2568 53.7335 68.4317C48.5586 73.6066 41.54 76.5138 34.2216 76.5138C33.3068 76.5138 32.4295 76.8772 31.7826 77.524C31.1357 78.1709 30.7723 79.0482 30.7723 79.963C30.7723 80.8778 31.1357 81.7551 31.7826 82.402C32.4295 83.0489 33.3068 83.4123 34.2216 83.4123C43.3696 83.4123 52.1429 79.7782 58.6115 73.3096C65.0801 66.841 68.7141 58.0677 68.7141 48.9198C68.7141 39.7718 65.0801 30.9985 58.6115 24.5299C52.1429 18.0613 43.3696 14.4273 34.2216 14.4273Z" fill="#0E8BFF"/>
<path d="M23.5567 74.3789C21.4366 73.4918 19.4355 72.3435 17.5998 70.9607C16.868 70.4091 15.947 70.1708 15.0395 70.2982C14.1319 70.4257 13.3122 70.9084 12.7605 71.6402C12.2089 72.3721 11.9706 73.2931 12.098 74.2006C12.2255 75.1082 12.7082 75.9279 13.44 76.4795C15.732 78.2081 18.23 79.6448 20.8766 80.7566C21.7205 81.1102 22.6703 81.114 23.5171 80.7673C24.3638 80.4206 25.0381 79.7517 25.3917 78.9078C25.7453 78.0639 25.7491 77.1141 25.4024 76.2674C25.0557 75.4206 24.3868 74.7463 23.5429 74.3927L23.5567 74.3789Z" fill="#136CD5"/>
<path d="M7.12665 54.1733C7.04536 53.7238 6.87558 53.2949 6.62718 52.9115C6.37877 52.5282 6.05668 52.1979 5.67961 51.9401C5.30254 51.6822 4.878 51.5018 4.43064 51.4093C3.98327 51.3168 3.522 51.3141 3.07359 51.4014C2.62518 51.4887 2.19857 51.6641 1.81853 51.9176C1.43848 52.1711 1.11258 52.4975 0.859733 52.878C0.606886 53.2585 0.432133 53.6854 0.345621 54.1339C0.259108 54.5825 0.262559 55.0438 0.355774 55.491C0.942057 58.4888 1.92087 61.3962 3.26694 64.1382C3.67082 64.9615 4.38523 65.5907 5.25299 65.8873C6.12075 66.1839 7.07079 66.1236 7.89411 65.7197C8.71743 65.3158 9.34658 64.6014 9.64317 63.7337C9.93975 62.8659 9.87947 61.9159 9.47559 61.0925C8.38787 58.9011 7.5979 56.5741 7.12665 54.1733Z" fill="#136CD5"/>
<path d="M8.4204 31.2975C8.02021 31.0853 7.58214 30.9539 7.13119 30.911C6.68025 30.8681 6.22527 30.9144 5.79223 31.0474C5.35919 31.1803 4.95658 31.3972 4.60737 31.6857C4.25817 31.9742 3.96922 32.3287 3.75701 32.7289C2.27621 35.525 1.18642 38.5112 0.518168 41.6039C0.371512 42.4788 0.567644 43.3767 1.06581 44.1108C1.56397 44.8449 2.32585 45.3589 3.19312 45.5458C4.06039 45.7328 4.96634 45.5784 5.72272 45.1147C6.47909 44.651 7.0277 43.9137 7.25455 43.056C7.7888 40.5774 8.6616 38.1842 9.84839 35.9436C10.2718 35.1375 10.3593 34.1967 10.0918 33.3263C9.82431 32.4559 9.22349 31.7266 8.4204 31.2975Z" fill="#136CD5"/>
</svg>
