<svg width="75" height="76" viewBox="0 0 75 76" fill="none" xmlns="http://www.w3.org/2000/svg">
<path d="M12.5664 28.9333C12.5664 22.3206 15.1933 15.9787 19.8692 11.3028C24.5451 6.6269 30.887 4 37.4997 4V4C44.1125 4 50.4544 6.6269 55.1303 11.3028C59.8062 15.9787 62.4331 22.3206 62.4331 28.9333" stroke="#0E8BFF" stroke-width="7" stroke-linecap="round" stroke-linejoin="round"/>
<path d="M46.5664 67.4661H53.3664C55.771 67.4661 58.0772 66.5109 59.7775 64.8106C61.4778 63.1103 62.4331 60.8041 62.4331 58.3995V56.1328" stroke="#0E8BFF" stroke-width="7" stroke-linecap="round" stroke-linejoin="round"/>
<path d="M14.8333 56.1336H12.5667C10.162 56.1336 7.8559 55.1784 6.15557 53.478C4.45524 51.7777 3.5 49.4716 3.5 47.0669V38.0003C3.5 35.5956 4.45524 33.2895 6.15557 31.5892C7.8559 29.8888 10.162 28.9336 12.5667 28.9336H14.8333C15.4345 28.9336 16.011 29.1724 16.4361 29.5975C16.8612 30.0226 17.1 30.5991 17.1 31.2003V53.8669C17.1 54.4681 16.8612 55.0446 16.4361 55.4697C16.011 55.8948 15.4345 56.1336 14.8333 56.1336Z" fill="#136CD5" stroke="#136CD5" stroke-width="7" stroke-linecap="round" stroke-linejoin="round"/>
<path d="M62.4337 56.1336H60.1671C59.5659 56.1336 58.9894 55.8948 58.5643 55.4697C58.1392 55.0446 57.9004 54.4681 57.9004 53.8669V31.2003C57.9004 30.5991 58.1392 30.0226 58.5643 29.5975C58.9894 29.1724 59.5659 28.9336 60.1671 28.9336H62.4337C64.8384 28.9336 67.1445 29.8888 68.8448 31.5892C70.5452 33.2895 71.5004 35.5956 71.5004 38.0003V47.0669C71.5004 49.4716 70.5452 51.7777 68.8448 53.478C67.1445 55.1784 64.8384 56.1336 62.4337 56.1336Z" fill="#136CD5" stroke="#136CD5" stroke-width="7" stroke-linecap="round" stroke-linejoin="round"/>
<path d="M42.0335 72.0003H37.5001C36.2978 72.0003 35.1447 71.5226 34.2946 70.6725C33.4444 69.8223 32.9668 68.6692 32.9668 67.4669C32.9668 66.2646 33.4444 65.1115 34.2946 64.2614C35.1447 63.4112 36.2978 62.9336 37.5001 62.9336H42.0335C43.2358 62.9336 44.3889 63.4112 45.239 64.2614C46.0892 65.1115 46.5668 66.2646 46.5668 67.4669C46.5668 68.6692 46.0892 69.8223 45.239 70.6725C44.3889 71.5226 43.2358 72.0003 42.0335 72.0003Z" fill="#136CD5" stroke="#136CD5" stroke-width="7" stroke-linecap="round" stroke-linejoin="round"/>
</svg>
