<svg width="53" height="74" viewBox="0 0 53 74" fill="none" xmlns="http://www.w3.org/2000/svg">
<path d="M11.403 21.9023H8.38373C7.96685 21.9023 7.62891 22.2403 7.62891 22.6572V58.1341C7.62891 58.551 7.96685 58.8889 8.38373 58.8889H11.403C11.8199 58.8889 12.1579 58.551 12.1579 58.1341V22.6572C12.1579 22.2403 11.8199 21.9023 11.403 21.9023Z" fill="#0E8BFF"/>
<path d="M18.9499 21.9023H15.9306C15.5137 21.9023 15.1758 22.2403 15.1758 22.6572V58.1341C15.1758 58.551 15.5137 58.8889 15.9306 58.8889H18.9499C19.3668 58.8889 19.7048 58.551 19.7048 58.1341V22.6572C19.7048 22.2403 19.3668 21.9023 18.9499 21.9023Z" fill="#0E8BFF"/>
<path d="M3.85422 21.9023H0.834907C0.418026 21.9023 0.0800781 22.2403 0.0800781 22.6572V58.1341C0.0800781 58.551 0.418026 58.8889 0.834907 58.8889H3.85422C4.2711 58.8889 4.60905 58.551 4.60905 58.1341V22.6572C4.60905 22.2403 4.2711 21.9023 3.85422 21.9023Z" fill="#0E8BFF"/>
<path d="M18.3459 18.8835C18.4736 18.8838 18.5993 18.8516 18.7112 18.7901C18.8231 18.7285 18.9176 18.6396 18.9858 18.5316C19.054 18.4236 19.0936 18.3001 19.1011 18.1726C19.1085 18.0451 19.0834 17.9178 19.0283 17.8026L11.2535 1.62206C11.1144 1.38537 10.9158 1.18914 10.6775 1.0528C10.4392 0.916451 10.1694 0.844727 9.89485 0.844727C9.62029 0.844727 9.35049 0.916451 9.11218 1.0528C8.87386 1.18914 8.6753 1.38537 8.53616 1.62206L0.767463 17.8026C0.712714 17.9168 0.68761 18.043 0.694465 18.1696C0.70132 18.2961 0.739914 18.4188 0.806689 18.5265C0.873464 18.6342 0.966272 18.7233 1.07656 18.7857C1.18684 18.8481 1.31106 18.8817 1.43775 18.8835H18.3459Z" fill="#0E8BFF"/>
<path d="M0.834907 61.9092C0.634714 61.9092 0.44272 61.9887 0.301162 62.1303C0.159605 62.2718 0.0800781 62.4638 0.0800781 62.664V63.4188C0.0800781 66.0213 1.11392 68.5173 2.95417 70.3575C4.79442 72.1978 7.29034 73.2316 9.89285 73.2316C12.4954 73.2316 14.9913 72.1978 16.8315 70.3575C18.6718 68.5173 19.7056 66.0213 19.7056 63.4188V62.664C19.7056 62.4638 19.6261 62.2718 19.4845 62.1303C19.343 61.9887 19.151 61.9092 18.9508 61.9092H0.834907Z" fill="#0E8BFF"/>
<path d="M48.3892 0.767578H33.2926C32.0915 0.767578 30.9395 1.24474 30.0902 2.09408C29.2408 2.94343 28.7637 4.09539 28.7637 5.29655V9.07069C28.7637 9.27088 28.8432 9.46288 28.9848 9.60443C29.1263 9.74599 29.3183 9.82552 29.5185 9.82552H34.8023C35.2027 9.82552 35.5867 9.98457 35.8698 10.2677C36.1529 10.5508 36.312 10.9348 36.312 11.3352C36.312 11.7356 36.1529 12.1195 35.8698 12.4027C35.5867 12.6858 35.2027 12.8448 34.8023 12.8448H29.5185C29.3183 12.8448 29.1263 12.9244 28.9848 13.0659C28.8432 13.2075 28.7637 13.3995 28.7637 13.5997V21.1479C28.7637 21.3481 28.8432 21.5401 28.9848 21.6817C29.1263 21.8232 29.3183 21.9028 29.5185 21.9028H34.8023C35.2027 21.9028 35.5867 22.0618 35.8698 22.3449C36.1529 22.6281 36.312 23.012 36.312 23.4124C36.312 23.8128 36.1529 24.1968 35.8698 24.4799C35.5867 24.763 35.2027 24.9221 34.8023 24.9221H29.5185C29.3183 24.9221 29.1263 25.0016 28.9848 25.1432C28.8432 25.2847 28.7637 25.4767 28.7637 25.6769V33.2252C28.7637 33.4254 28.8432 33.6174 28.9848 33.7589C29.1263 33.9005 29.3183 33.98 29.5185 33.98H34.8023C35.2027 33.98 35.5867 34.1391 35.8698 34.4222C36.1529 34.7053 36.312 35.0893 36.312 35.4897C36.312 35.8901 36.1529 36.2741 35.8698 36.5572C35.5867 36.8403 35.2027 36.9993 34.8023 36.9993H29.5185C29.3183 36.9993 29.1263 37.0789 28.9848 37.2204C28.8432 37.362 28.7637 37.554 28.7637 37.7542V45.3025C28.7637 45.5026 28.8432 45.6946 28.9848 45.8362C29.1263 45.9778 29.3183 46.0573 29.5185 46.0573H34.8023C35.2027 46.0573 35.5867 46.2163 35.8698 46.4995C36.1529 46.7826 36.312 47.1666 36.312 47.5669C36.312 47.9673 36.1529 48.3513 35.8698 48.6344C35.5867 48.9175 35.2027 49.0766 34.8023 49.0766H29.5185C29.3183 49.0766 29.1263 49.1561 28.9848 49.2977C28.8432 49.4392 28.7637 49.6312 28.7637 49.8314V68.7021C28.7637 69.9033 29.2408 71.0553 30.0902 71.9046C30.9395 72.7539 32.0915 73.2311 33.2926 73.2311H48.3892C49.5904 73.2311 50.7423 72.7539 51.5917 71.9046C52.441 71.0553 52.9182 69.9033 52.9182 68.7021V5.29655C52.9182 4.09539 52.441 2.94343 51.5917 2.09408C50.7423 1.24474 49.5904 0.767578 48.3892 0.767578V0.767578ZM40.8409 59.6442C41.5874 59.6442 42.3171 59.8655 42.9377 60.2803C43.5584 60.695 44.0421 61.2844 44.3278 61.974C44.6134 62.6637 44.6882 63.4225 44.5425 64.1546C44.3969 64.8867 44.0375 65.5592 43.5097 66.0871C42.9818 66.6149 42.3093 66.9743 41.5772 67.12C40.8451 67.2656 40.0863 67.1908 39.3966 66.9052C38.707 66.6195 38.1175 66.1358 37.7028 65.5151C37.2881 64.8945 37.0668 64.1648 37.0668 63.4183C37.0684 62.4179 37.4665 61.4588 38.174 60.7514C38.8814 60.0439 39.8405 59.6458 40.8409 59.6442Z" fill="#136CD5"/>
</svg>
