<svg width="42" height="18" viewBox="0 0 42 18" fill="none" xmlns="http://www.w3.org/2000/svg">
<rect x="0.0493164" y="0.547852" width="41.9503" height="16.5" rx="8.25" fill="#0E8BFF"/>
<path d="M10.2882 12.0478H10.2981C10.4174 12.0482 10.5323 12.0026 10.619 11.9205C10.7056 11.8385 10.7574 11.7263 10.7636 11.6071C10.815 10.5516 11.8878 9.26214 13.0838 9.26214C13.1448 9.26275 13.2053 9.25134 13.2618 9.22857C13.3184 9.2058 13.3699 9.17212 13.4135 9.12943C13.457 9.08675 13.4917 9.03591 13.5156 8.97982C13.5395 8.92372 13.5521 8.86347 13.5527 8.80249C13.5534 8.74152 13.5419 8.68103 13.5192 8.62447C13.4964 8.5679 13.4627 8.51638 13.42 8.47284C13.3774 8.42929 13.3265 8.39458 13.2704 8.37068C13.2143 8.34679 13.1541 8.33418 13.0931 8.33357C12.4966 8.28376 11.9366 8.02601 11.5108 7.60533C11.0851 7.18465 10.8206 6.62777 10.7636 6.03195V6.01214C10.7637 5.95109 10.7517 5.89063 10.7284 5.83422C10.7051 5.77782 10.6708 5.72658 10.6276 5.68344C10.5844 5.6403 10.5331 5.60612 10.4767 5.58285C10.4202 5.55958 10.3598 5.54769 10.2987 5.54785C10.2378 5.54777 10.1775 5.55968 10.1212 5.58291C10.065 5.60614 10.0138 5.64022 9.97068 5.68322C9.92757 5.72622 9.89334 5.77729 9.86997 5.83351C9.84659 5.88973 9.83452 5.95001 9.83444 6.0109C9.78192 6.61031 9.51953 7.17195 9.09349 7.59685C8.66746 8.02175 8.10513 8.28265 7.50558 8.33357C7.38315 8.3352 7.26637 8.38532 7.18084 8.47294C7.09531 8.56055 7.04802 8.67851 7.04934 8.80095C7.05097 8.92383 7.10093 9.04112 7.18841 9.12744C7.27588 9.21376 7.39383 9.26215 7.51672 9.26214C8.11892 9.30432 8.68548 9.5631 9.11165 9.99064C9.53783 10.4182 9.7948 10.9856 9.83506 11.5879C9.83599 11.7084 9.88382 11.8238 9.96841 11.9097C10.053 11.9956 10.1677 12.0451 10.2882 12.0478Z" fill="white"/>
<path d="M15.5527 11.9478V5.64783H16.8577V8.17683H19.7557V5.64783H21.0607V11.9478H19.7557V9.37383H16.8577V11.9478H15.5527Z" fill="white"/>
<path d="M28.9921 8.79783C28.9921 9.24783 28.9051 9.67383 28.7311 10.0758C28.5571 10.4718 28.3201 10.8168 28.0201 11.1108C27.7261 11.3988 27.3751 11.6268 26.9671 11.7948C26.5591 11.9628 26.1211 12.0468 25.6531 12.0468C25.1911 12.0468 24.7561 11.9628 24.3481 11.7948C23.9401 11.6268 23.5861 11.3988 23.2861 11.1108C22.9921 10.8168 22.7581 10.4718 22.5841 10.0758C22.4101 9.67383 22.3231 9.24783 22.3231 8.79783C22.3231 8.34783 22.4101 7.92483 22.5841 7.52883C22.7581 7.12683 22.9921 6.78183 23.2861 6.49383C23.5861 6.19983 23.9401 5.96883 24.3481 5.80083C24.7561 5.63283 25.1911 5.54883 25.6531 5.54883C26.1211 5.54883 26.5591 5.63283 26.9671 5.80083C27.3751 5.96883 27.7261 6.19983 28.0201 6.49383C28.3201 6.78183 28.5571 7.12683 28.7311 7.52883C28.9051 7.92483 28.9921 8.34783 28.9921 8.79783ZM27.6511 8.79783C27.6511 8.50383 27.6001 8.23383 27.4981 7.98783C27.3961 7.73583 27.2551 7.51983 27.0751 7.33983C26.9011 7.15383 26.6911 7.00983 26.4451 6.90783C26.1991 6.79983 25.9351 6.74583 25.6531 6.74583C25.3711 6.74583 25.1071 6.79983 24.8611 6.90783C24.6211 7.00983 24.4111 7.15383 24.2311 7.33983C24.0571 7.51983 23.9191 7.73583 23.8171 7.98783C23.7151 8.23383 23.6641 8.50383 23.6641 8.79783C23.6641 9.08583 23.7151 9.35583 23.8171 9.60783C23.9191 9.85983 24.0571 10.0788 24.2311 10.2648C24.4111 10.4448 24.6211 10.5888 24.8611 10.6968C25.1071 10.7988 25.3711 10.8498 25.6531 10.8498C25.9351 10.8498 26.1991 10.7988 26.4451 10.6968C26.6911 10.5888 26.9011 10.4448 27.0751 10.2648C27.2551 10.0788 27.3961 9.85983 27.4981 9.60783C27.6001 9.35583 27.6511 9.08583 27.6511 8.79783Z" fill="white"/>
<path d="M29.4556 6.79983V5.64783H34.9996V6.79983H32.8846V11.9478H31.5796V6.79983H29.4556Z" fill="white"/>
</svg>
