<svg width="53" height="60" viewBox="0 0 53 60" fill="none" xmlns="http://www.w3.org/2000/svg">
<path fill-rule="evenodd" clip-rule="evenodd" d="M44.9886 1.21925C45.3715 1.3475 46.0384 1.6089 46.4704 1.80002L47.256 2.14778L43.0754 3.29197C40.776 3.92137 38.3822 4.63664 37.7556 4.88168C32.5603 6.91285 29.9279 9.63762 27.8074 15.179C27.2066 16.7489 27.1732 17.0063 27.684 16.1312C29.3737 13.2364 32.2193 10.9775 35.3008 10.0852C36.3423 9.78366 37.6436 9.58809 38.7645 9.56456C39.8469 9.54192 42.5942 10.1111 43.6596 10.5788C46.562 11.8529 49.0026 13.9419 50.7558 16.6529C51.4256 17.6885 52.4644 19.7257 52.3585 19.7961C52.3394 19.8088 51.0036 19.1391 49.3901 18.3077C46.1794 16.6532 44.8141 16.0155 43.1969 15.415C42.1132 15.0124 39.891 14.5237 38.7562 14.4381C36.2155 14.2467 33.2651 15.0125 30.2209 16.6531L29.7084 16.9293L30.4909 17.0856C33.1391 17.6147 35.0396 20.4082 34.9809 23.685C34.9541 25.1794 34.9547 25.1796 33.7002 23.1042C32.4846 21.0931 31.6191 20.0385 30.7206 19.4739C29.9875 19.0132 28.9249 18.6517 28.0524 18.5662L27.341 18.4965L27.7377 19.4633C29.9158 24.7716 31.1722 32.4588 31.2824 41.1503C31.3334 45.169 31.2078 46.4732 30.1452 52.9698C29.9007 54.4653 29.5586 56.0657 29.4618 56.6737L29.1733 58.2709L28.8612 59.2328L28.1898 59.8863L27.0885 58.3256L26.37 57.7086L25.3158 57.4184L23.9259 57.4549L21.5787 57.8344L21.4701 56.8835L22.4181 54.3152L23.9904 49.8231L25.5508 45.0133C27.2492 39.6534 27.1538 32.8902 27.0813 30.0308C26.9181 23.5897 27.0224 28.4427 26.9114 23.4086C26.7177 21.2269 26.3342 18.9954 26.1234 18.824C26.0353 18.7522 25.7197 18.5821 25.4222 18.4461L24.8812 18.1987L24.1933 18.5266C23.1514 19.0232 22.015 19.8701 21.4544 20.5679C20.5802 21.6557 18.8853 22.074 18.2679 24.8337L18.2692 25.1597C17.9966 23.8161 17.9982 24.2185 18.259 22.5241C18.4786 21.2672 18.7671 20.5923 19.4986 19.6246C20.088 18.845 21.5063 17.8569 22.3052 17.6693C22.5899 17.6025 22.831 17.5121 22.8409 17.4683C22.8888 17.2581 19.6426 16.4486 18.2588 16.3257C15.8344 16.1102 13.7855 16.4454 11.4444 17.4404C9.35487 18.3285 7.72502 19.357 3.40334 22.5145C2.05347 23.5006 0.938878 24.2916 0.926398 24.272C0.850747 24.1531 1.76323 21.7481 2.2619 20.7522C4.886 15.5118 9.79078 11.9339 14.7753 11.624C19.0261 11.3598 23.1178 13.4013 25.3936 16.9221C25.7203 17.4275 25.9517 17.7047 25.9081 17.5384C25.8027 17.1373 24.1275 14.7538 23.1005 13.544C21.5615 11.7308 20.1278 10.5552 18.2914 9.60078C17.575 9.22848 17.0751 9.06752 15.5522 8.7191C12.7307 8.07356 11.2408 8.06264 5.14429 8.64252C3.36681 8.8115 1.9018 8.93286 1.88853 8.91215C1.87539 8.89136 2.25723 8.53202 2.73701 8.11367C6.95837 4.43327 12.4683 2.86039 17.1384 4.00254C20.957 4.93651 23.8113 7.41283 25.3096 11.0918L25.6287 11.8756L25.7083 11.1897C25.8733 9.76486 26.8866 7.439 28.0081 5.91137C30.4519 2.58207 34.7927 0.479739 39.3726 0.407119C41.2141 0.378043 43.4355 0.699185 44.9886 1.21925Z" fill="#136CD5"/>
</svg>
